<svg xmlns="http://www.w3.org/2000/svg" xmlns:xlink="http://www.w3.org/1999/xlink" width="1500" height="1150" zoomAndPan="magnify" viewBox="0 0 750 383.999986"  preserveAspectRatio="xMidYMid meet" version="1.0"><defs><g/></defs><path fill="#d11f26" d="M 22.347656 255.382812 C 23.847656 293.902344 42.058594 313.957031 57.484375 330.902344 C 71.75 346.570312 90.875 360.84375 86.585938 383.984375 C 89.726562 377.3125 90.390625 373.550781 91.886719 366.996094 C 101.59375 324.4375 33.03125 299.355469 22.347656 255.382812 " fill-opacity="1" fill-rule="nonzero"/><path fill="#1a2f69" d="M 112.417969 365.679688 C 184.328125 294.527344 127.25 216.644531 100.285156 174.910156 C 47.347656 92.964844 108.796875 16.652344 127.417969 0 C 39.410156 12.339844 -14.53125 137.75 17.570312 205.3125 C 43.984375 260.894531 108.808594 296.515625 112.417969 365.679688 " fill-opacity="1" fill-rule="nonzero"/><path fill="#d11f26" d="M 167.808594 306.585938 C 230.679688 261.644531 251.390625 189.796875 210.441406 145.167969 C 175.074219 106.621094 131.695312 83.710938 128.386719 24.890625 C 88.761719 81.613281 109.597656 128.800781 145.246094 171.726562 C 192.921875 229.132812 173.105469 296.007812 167.808594 306.585938 " fill-opacity="1" fill-rule="nonzero"/><g fill="#193071" fill-opacity="1"><g transform="translate(241.166539, 224.999982)"><g><path d="M 5.578125 0 L 5.578125 -69.4375 L 23.9375 -69.4375 C 32.050781 -69.4375 38.515625 -66.859375 43.328125 -61.703125 C 48.140625 -56.554688 50.597656 -49.5 50.703125 -40.53125 L 50.703125 -29.28125 C 50.703125 -20.15625 48.289062 -12.992188 43.46875 -7.796875 C 38.65625 -2.597656 32.019531 0 23.5625 0 Z M 19.59375 -57.75 L 19.59375 -11.640625 L 23.796875 -11.640625 C 28.472656 -11.640625 31.765625 -12.867188 33.671875 -15.328125 C 35.578125 -17.796875 36.578125 -22.050781 36.671875 -28.09375 L 36.671875 -40.15625 C 36.671875 -46.644531 35.765625 -51.164062 33.953125 -53.71875 C 32.140625 -56.28125 29.054688 -57.625 24.703125 -57.75 Z M 19.59375 -57.75 "/></g></g></g><g fill="#193071" fill-opacity="1"><g transform="translate(304.643043, 224.999982)"><g><path d="M 54.265625 0 L 40.296875 0 L 40.296875 -29.71875 L 19.59375 -29.71875 L 19.59375 0 L 5.578125 0 L 5.578125 -69.4375 L 19.59375 -69.4375 L 19.59375 -41.34375 L 40.296875 -41.34375 L 40.296875 -69.4375 L 54.265625 -69.4375 Z M 54.265625 0 "/></g></g></g><g fill="#193071" fill-opacity="1"><g transform="translate(372.8883, 224.999982)"><g><path d="M 29.1875 -24.125 L 5.859375 -24.125 L 5.859375 -35.390625 L 29.1875 -35.390625 Z M 29.1875 -24.125 "/></g></g></g><g fill="#193071" fill-opacity="1"><g transform="translate(416.669855, 224.999982)"><g><path d="M 20.21875 0 L 6.203125 0 L 6.203125 -69.4375 L 20.21875 -69.4375 Z M 20.21875 0 "/></g></g></g><g fill="#193071" fill-opacity="1"><g transform="translate(451.390781, 224.999982)"><g><path d="M 52.796875 -7.875 C 50.085938 -4.945312 46.769531 -2.742188 42.84375 -1.265625 C 38.914062 0.210938 34.617188 0.953125 29.953125 0.953125 C 21.972656 0.953125 15.769531 -1.515625 11.34375 -6.453125 C 6.925781 -11.398438 4.65625 -18.597656 4.53125 -28.046875 L 4.53125 -40.53125 C 4.53125 -50.101562 6.617188 -57.472656 10.796875 -62.640625 C 14.984375 -67.804688 21.082031 -70.390625 29.09375 -70.390625 C 36.625 -70.390625 42.304688 -68.53125 46.140625 -64.8125 C 49.972656 -61.09375 52.191406 -55.257812 52.796875 -47.3125 L 39.15625 -47.3125 C 38.769531 -51.726562 37.84375 -54.738281 36.375 -56.34375 C 34.914062 -57.945312 32.628906 -58.75 29.515625 -58.75 C 25.734375 -58.75 22.984375 -57.363281 21.265625 -54.59375 C 19.546875 -51.832031 18.65625 -47.429688 18.59375 -41.390625 L 18.59375 -28.8125 C 18.59375 -22.476562 19.539062 -17.875 21.4375 -15 C 23.332031 -12.125 26.441406 -10.6875 30.765625 -10.6875 C 33.523438 -10.6875 35.765625 -11.242188 37.484375 -12.359375 L 38.71875 -13.203125 L 38.71875 -25.9375 L 28.90625 -25.9375 L 28.90625 -36.53125 L 52.796875 -36.53125 Z M 52.796875 -7.875 "/></g></g></g><g fill="#193071" fill-opacity="1"><g transform="translate(516.822462, 224.999982)"><g><path d="M 54.125 0 L 40.109375 0 L 19.59375 -45.546875 L 19.59375 0 L 5.578125 0 L 5.578125 -69.4375 L 19.59375 -69.4375 L 40.15625 -23.84375 L 40.15625 -69.4375 L 54.125 -69.4375 Z M 54.125 0 "/></g></g></g><g fill="#193071" fill-opacity="1"><g transform="translate(584.924645, 224.999982)"><g><path d="M 20.21875 0 L 6.203125 0 L 6.203125 -69.4375 L 20.21875 -69.4375 Z M 20.21875 0 "/></g></g></g><g fill="#193071" fill-opacity="1"><g transform="translate(619.645559, 224.999982)"><g><path d="M 50.546875 -57.75 L 33.390625 -57.75 L 33.390625 0 L 19.3125 0 L 19.3125 -57.75 L 2.4375 -57.75 L 2.4375 -69.4375 L 50.546875 -69.4375 Z M 50.546875 -57.75 "/></g></g></g><g fill="#193071" fill-opacity="1"><g transform="translate(680.976136, 224.999982)"><g><path d="M 41.4375 -30.046875 L 19.59375 -30.046875 L 19.59375 -11.640625 L 45.453125 -11.640625 L 45.453125 0 L 5.578125 0 L 5.578125 -69.4375 L 45.359375 -69.4375 L 45.359375 -57.75 L 19.59375 -57.75 L 19.59375 -41.34375 L 41.4375 -41.34375 Z M 41.4375 -30.046875 "/></g></g></g><g fill="#d11f26" fill-opacity="1"><g transform="translate(255.826694, 298.561455)"><g><path d="M 26.3125 -12.265625 C 25.851562 -8.273438 24.382812 -5.125 21.90625 -2.8125 C 19.425781 -0.5 16.28125 0.601562 12.46875 0.5 C 9.207031 0.4375 6.679688 -0.632812 4.890625 -2.71875 C 3.109375 -4.8125 2.171875 -7.710938 2.078125 -11.421875 C 2.035156 -12.679688 2.097656 -13.953125 2.265625 -15.234375 L 3.203125 -21.3125 C 3.992188 -26.507812 5.707031 -30.488281 8.34375 -33.25 C 10.976562 -36.019531 14.25 -37.363281 18.15625 -37.28125 C 21.570312 -37.226562 24.195312 -36.09375 26.03125 -33.875 C 27.863281 -31.664062 28.78125 -28.457031 28.78125 -24.25 L 21.484375 -24.265625 L 21.546875 -26.765625 C 21.492188 -29.597656 20.171875 -31.054688 17.578125 -31.140625 C 15.578125 -31.203125 13.992188 -30.472656 12.828125 -28.953125 C 11.671875 -27.429688 10.890625 -24.960938 10.484375 -21.546875 L 9.578125 -15.203125 C 9.335938 -13.179688 9.207031 -11.859375 9.1875 -11.234375 C 9.019531 -7.597656 10.300781 -5.722656 13.03125 -5.609375 C 14.726562 -5.523438 16.082031 -5.972656 17.09375 -6.953125 C 18.101562 -7.941406 18.8125 -9.695312 19.21875 -12.21875 Z M 26.3125 -12.265625 "/></g></g></g><g fill="#d11f26" fill-opacity="1"><g transform="translate(284.682489, 298.561455)"><g><path d="M 14.265625 -27.828125 C 17.023438 -27.765625 19.179688 -26.832031 20.734375 -25.03125 C 22.285156 -23.226562 23.132812 -20.8125 23.28125 -17.78125 L 23.28125 -15.984375 C 23.0625 -10.703125 21.796875 -6.609375 19.484375 -3.703125 C 17.171875 -0.796875 14.148438 0.601562 10.421875 0.5 C 8.253906 0.445312 6.460938 -0.132812 5.046875 -1.25 C 3.628906 -2.363281 2.613281 -3.914062 2 -5.90625 C 1.382812 -7.894531 1.210938 -10.175781 1.484375 -12.75 L 1.640625 -14.109375 C 2.128906 -18.410156 3.5 -21.789062 5.75 -24.25 C 8.007812 -26.71875 10.847656 -27.910156 14.265625 -27.828125 Z M 8.359375 -9.90625 C 8.359375 -6.988281 9.25 -5.476562 11.03125 -5.375 C 13.457031 -5.238281 15.035156 -7.09375 15.765625 -10.9375 L 16.03125 -12.75 C 16.269531 -15.175781 16.390625 -16.734375 16.390625 -17.421875 C 16.390625 -20.316406 15.472656 -21.820312 13.640625 -21.9375 C 12.304688 -22.007812 11.207031 -21.394531 10.34375 -20.09375 C 9.488281 -18.800781 8.941406 -16.929688 8.703125 -14.484375 C 8.472656 -12.035156 8.359375 -10.507812 8.359375 -9.90625 Z M 8.359375 -9.90625 "/></g></g></g><g fill="#d11f26" fill-opacity="1"><g transform="translate(309.877662, 298.561455)"><g><path d="M 10.953125 -27.34375 L 10.453125 -24.59375 C 12.367188 -26.832031 14.5 -27.921875 16.84375 -27.859375 C 18.757812 -27.816406 20.21875 -27.09375 21.21875 -25.6875 C 22.226562 -24.289062 22.722656 -22.296875 22.703125 -19.703125 L 22.546875 -17.375 L 19.640625 0 L 12.65625 0 L 15.53125 -17.421875 L 15.65625 -18.921875 C 15.726562 -20.890625 14.988281 -21.875 13.4375 -21.875 C 12.707031 -21.875 12.085938 -21.675781 11.578125 -21.28125 C 11.078125 -20.882812 10.609375 -20.414062 10.171875 -19.875 L 6.71875 0 L -0.296875 0 L 4.4375 -27.328125 Z M 10.953125 -27.34375 "/></g></g></g><g fill="#d11f26" fill-opacity="1"><g transform="translate(334.820379, 298.561455)"><g><path d="M 10.953125 -27.34375 L 10.453125 -24.59375 C 12.367188 -26.832031 14.5 -27.921875 16.84375 -27.859375 C 18.757812 -27.816406 20.21875 -27.09375 21.21875 -25.6875 C 22.226562 -24.289062 22.722656 -22.296875 22.703125 -19.703125 L 22.546875 -17.375 L 19.640625 0 L 12.65625 0 L 15.53125 -17.421875 L 15.65625 -18.921875 C 15.726562 -20.890625 14.988281 -21.875 13.4375 -21.875 C 12.707031 -21.875 12.085938 -21.675781 11.578125 -21.28125 C 11.078125 -20.882812 10.609375 -20.414062 10.171875 -19.875 L 6.71875 0 L -0.296875 0 L 4.4375 -27.328125 Z M 10.953125 -27.34375 "/></g></g></g><g fill="#d11f26" fill-opacity="1"><g transform="translate(359.763095, 298.561455)"><g><path d="M 11.140625 0.5 C 8.929688 0.488281 7.054688 -0.046875 5.515625 -1.109375 C 3.972656 -2.171875 2.859375 -3.65625 2.171875 -5.5625 C 1.492188 -7.476562 1.289062 -9.65625 1.5625 -12.09375 L 1.796875 -13.96875 C 2.347656 -18.5 3.722656 -21.960938 5.921875 -24.359375 C 8.117188 -26.753906 10.914062 -27.910156 14.3125 -27.828125 C 16.8125 -27.765625 18.769531 -26.988281 20.1875 -25.5 C 21.613281 -24.007812 22.441406 -21.925781 22.671875 -19.25 C 22.804688 -17.644531 22.773438 -16.078125 22.578125 -14.546875 L 22.09375 -11.265625 L 8.453125 -11.265625 C 8.367188 -10.535156 8.347656 -9.835938 8.390625 -9.171875 C 8.503906 -6.742188 9.6875 -5.503906 11.9375 -5.453125 C 14.039062 -5.390625 16.082031 -6.191406 18.0625 -7.859375 L 20.40625 -3.515625 C 19.476562 -2.242188 18.1875 -1.242188 16.53125 -0.515625 C 14.875 0.203125 13.078125 0.539062 11.140625 0.5 Z M 13.640625 -21.9375 C 11.628906 -22.03125 10.226562 -20.753906 9.4375 -18.109375 L 8.9375 -16.265625 L 15.890625 -16.234375 C 16.054688 -17.210938 16.144531 -18.003906 16.15625 -18.609375 C 16.226562 -20.742188 15.390625 -21.851562 13.640625 -21.9375 Z M 13.640625 -21.9375 "/></g></g></g><g fill="#d11f26" fill-opacity="1"><g transform="translate(384.024179, 298.561455)"><g><path d="M 10.578125 -5.375 C 12.492188 -5.320312 13.679688 -6.675781 14.140625 -9.4375 L 20.6875 -9.46875 C 20.394531 -6.4375 19.269531 -3.992188 17.3125 -2.140625 C 15.363281 -0.296875 12.984375 0.59375 10.171875 0.53125 C 7.628906 0.457031 5.601562 -0.300781 4.09375 -1.75 C 2.59375 -3.207031 1.703125 -5.242188 1.421875 -7.859375 C 1.160156 -9.972656 1.28125 -12.53125 1.78125 -15.53125 C 2.28125 -18.53125 3.203125 -21.03125 4.546875 -23.03125 C 6.753906 -26.332031 9.894531 -27.929688 13.96875 -27.828125 C 16.726562 -27.742188 18.832031 -26.742188 20.28125 -24.828125 C 21.726562 -22.921875 22.375 -20.34375 22.21875 -17.09375 L 15.65625 -17.125 L 15.6875 -18.6875 C 15.613281 -20.769531 14.785156 -21.851562 13.203125 -21.9375 C 10.734375 -22.070312 9.257812 -20.15625 8.78125 -16.1875 L 8.3125 -11.609375 C 8.101562 -10.253906 8.035156 -9.117188 8.109375 -8.203125 C 8.222656 -6.367188 9.046875 -5.425781 10.578125 -5.375 Z M 10.578125 -5.375 "/></g></g></g><g fill="#d11f26" fill-opacity="1"><g transform="translate(407.351173, 298.561455)"><g><path d="M 13.890625 -34.046875 L 12.734375 -27.328125 L 16.265625 -27.328125 L 15.328125 -21.9375 L 11.796875 -21.9375 L 9.46875 -8.1875 L 9.390625 -7.375 C 9.328125 -6.25 9.800781 -5.664062 10.8125 -5.625 C 11.09375 -5.613281 11.664062 -5.65625 12.53125 -5.75 L 11.890625 -0.15625 C 10.847656 0.269531 9.640625 0.484375 8.265625 0.484375 C 6.222656 0.441406 4.6875 -0.289062 3.65625 -1.71875 C 2.632812 -3.144531 2.238281 -5.097656 2.46875 -7.578125 L 4.828125 -21.9375 L 1.75 -21.9375 L 2.671875 -27.328125 L 5.734375 -27.328125 L 6.921875 -34.046875 Z M 13.890625 -34.046875 "/></g></g></g><g fill="#d11f26" fill-opacity="1"><g transform="translate(423.003485, 298.561455)"><g/></g></g><g fill="#d11f26" fill-opacity="1"><g transform="translate(434.818456, 298.561455)"><g><path d="M 14.59375 -12.78125 L 2.578125 -12.78125 L 3.640625 -18.734375 L 15.65625 -18.734375 Z M 14.59375 -12.78125 "/></g></g></g><g fill="#d11f26" fill-opacity="1"><g transform="translate(453.298282, 298.561455)"><g/></g></g><g fill="#d11f26" fill-opacity="1"><g transform="translate(465.113253, 298.561455)"><g><path d="M 8.53125 -6.15625 L 21.1875 -6.15625 L 20.109375 0 L 0.234375 0 L 6.59375 -36.765625 L 13.84375 -36.765625 Z M 8.53125 -6.15625 "/></g></g></g><g fill="#d11f26" fill-opacity="1"><g transform="translate(489.374337, 298.561455)"><g><path d="M 11.140625 0.5 C 8.929688 0.488281 7.054688 -0.046875 5.515625 -1.109375 C 3.972656 -2.171875 2.859375 -3.65625 2.171875 -5.5625 C 1.492188 -7.476562 1.289062 -9.65625 1.5625 -12.09375 L 1.796875 -13.96875 C 2.347656 -18.5 3.722656 -21.960938 5.921875 -24.359375 C 8.117188 -26.753906 10.914062 -27.910156 14.3125 -27.828125 C 16.8125 -27.765625 18.769531 -26.988281 20.1875 -25.5 C 21.613281 -24.007812 22.441406 -21.925781 22.671875 -19.25 C 22.804688 -17.644531 22.773438 -16.078125 22.578125 -14.546875 L 22.09375 -11.265625 L 8.453125 -11.265625 C 8.367188 -10.535156 8.347656 -9.835938 8.390625 -9.171875 C 8.503906 -6.742188 9.6875 -5.503906 11.9375 -5.453125 C 14.039062 -5.390625 16.082031 -6.191406 18.0625 -7.859375 L 20.40625 -3.515625 C 19.476562 -2.242188 18.1875 -1.242188 16.53125 -0.515625 C 14.875 0.203125 13.078125 0.539062 11.140625 0.5 Z M 13.640625 -21.9375 C 11.628906 -22.03125 10.226562 -20.753906 9.4375 -18.109375 L 8.9375 -16.265625 L 15.890625 -16.234375 C 16.054688 -17.210938 16.144531 -18.003906 16.15625 -18.609375 C 16.226562 -20.742188 15.390625 -21.851562 13.640625 -21.9375 Z M 13.640625 -21.9375 "/></g></g></g><g fill="#d11f26" fill-opacity="1"><g transform="translate(513.63542, 298.561455)"><g><path d="M 12.875 0 C 12.738281 -0.570312 12.671875 -1.28125 12.671875 -2.125 C 11.128906 -0.351562 9.363281 0.53125 7.375 0.53125 C 5.269531 0.5 3.582031 -0.269531 2.3125 -1.78125 C 1.039062 -3.300781 0.457031 -5.191406 0.5625 -7.453125 C 0.707031 -10.347656 1.832031 -12.613281 3.9375 -14.25 C 6.039062 -15.894531 8.867188 -16.71875 12.421875 -16.71875 L 14.46875 -16.71875 L 14.796875 -18.9375 L 14.875 -20.078125 C 14.875 -21.535156 14.285156 -22.265625 13.109375 -22.265625 C 11.472656 -22.316406 10.476562 -21.273438 10.125 -19.140625 L 3.1875 -19.09375 C 3.332031 -21.6875 4.40625 -23.800781 6.40625 -25.4375 C 8.414062 -27.082031 10.859375 -27.890625 13.734375 -27.859375 C 16.441406 -27.785156 18.515625 -26.925781 19.953125 -25.28125 C 21.398438 -23.644531 21.988281 -21.476562 21.71875 -18.78125 L 19.5 -4.90625 L 19.390625 -3.5625 C 19.328125 -2.382812 19.445312 -1.347656 19.75 -0.453125 L 19.71875 0 Z M 9.296875 -5.046875 C 10.523438 -5.015625 11.671875 -5.554688 12.734375 -6.671875 L 13.96875 -12.453125 L 12.453125 -12.453125 C 11.097656 -12.378906 10.007812 -11.921875 9.1875 -11.078125 C 8.363281 -10.242188 7.867188 -9.1875 7.703125 -7.90625 L 7.671875 -6.9375 C 7.671875 -6.40625 7.8125 -5.960938 8.09375 -5.609375 C 8.375 -5.253906 8.773438 -5.066406 9.296875 -5.046875 Z M 9.296875 -5.046875 "/></g></g></g><g fill="#d11f26" fill-opacity="1"><g transform="translate(537.492574, 298.561455)"><g><path d="M 16.75 -20.453125 L 14.515625 -20.703125 C 12.648438 -20.742188 11.144531 -19.863281 10 -18.0625 L 6.84375 0 L -0.15625 0 L 4.59375 -27.328125 L 11.140625 -27.34375 L 10.578125 -24.34375 C 11.398438 -25.65625 12.207031 -26.578125 13 -27.109375 C 13.789062 -27.640625 14.644531 -27.90625 15.5625 -27.90625 C 16.09375 -27.90625 16.804688 -27.78125 17.703125 -27.53125 Z M 16.75 -20.453125 "/></g></g></g><g fill="#d11f26" fill-opacity="1"><g transform="translate(554.381924, 298.561455)"><g><path d="M 10.953125 -27.34375 L 10.453125 -24.59375 C 12.367188 -26.832031 14.5 -27.921875 16.84375 -27.859375 C 18.757812 -27.816406 20.21875 -27.09375 21.21875 -25.6875 C 22.226562 -24.289062 22.722656 -22.296875 22.703125 -19.703125 L 22.546875 -17.375 L 19.640625 0 L 12.65625 0 L 15.53125 -17.421875 L 15.65625 -18.921875 C 15.726562 -20.890625 14.988281 -21.875 13.4375 -21.875 C 12.707031 -21.875 12.085938 -21.675781 11.578125 -21.28125 C 11.078125 -20.882812 10.609375 -20.414062 10.171875 -19.875 L 6.71875 0 L -0.296875 0 L 4.4375 -27.328125 Z M 10.953125 -27.34375 "/></g></g></g><g fill="#d11f26" fill-opacity="1"><g transform="translate(579.32464, 298.561455)"><g/></g></g><g fill="#d11f26" fill-opacity="1"><g transform="translate(591.139611, 298.561455)"><g><path d="M 14.59375 -12.78125 L 2.578125 -12.78125 L 3.640625 -18.734375 L 15.65625 -18.734375 Z M 14.59375 -12.78125 "/></g></g></g><g fill="#d11f26" fill-opacity="1"><g transform="translate(609.619438, 298.561455)"><g/></g></g><g fill="#d11f26" fill-opacity="1"><g transform="translate(621.434409, 298.561455)"><g><path d="M 25.5 -4.171875 C 24.132812 -2.648438 22.359375 -1.476562 20.171875 -0.65625 C 17.984375 0.15625 15.632812 0.539062 13.125 0.5 C 10.925781 0.488281 9.015625 0.0078125 7.390625 -0.9375 C 5.773438 -1.894531 4.523438 -3.273438 3.640625 -5.078125 C 2.765625 -6.890625 2.289062 -8.976562 2.21875 -11.34375 C 2.164062 -12.625 2.226562 -13.925781 2.40625 -15.25 L 3.3125 -21.34375 C 4.082031 -26.457031 5.742188 -30.410156 8.296875 -33.203125 C 10.859375 -36.003906 14.195312 -37.363281 18.3125 -37.28125 C 21.8125 -37.207031 24.445312 -36.144531 26.21875 -34.09375 C 28 -32.050781 28.90625 -29.03125 28.9375 -25.03125 L 21.890625 -25.046875 L 21.8125 -27.078125 C 21.59375 -29.703125 20.304688 -31.054688 17.953125 -31.140625 C 14.472656 -31.273438 12.1875 -28.976562 11.09375 -24.25 L 10.703125 -22.34375 L 9.703125 -15.25 C 9.484375 -13.632812 9.394531 -12.253906 9.4375 -11.109375 C 9.53125 -9.222656 9.957031 -7.851562 10.71875 -7 C 11.488281 -6.15625 12.570312 -5.71875 13.96875 -5.6875 C 15.28125 -5.644531 16.742188 -6.070312 18.359375 -6.96875 L 19.640625 -13.734375 L 14.578125 -13.734375 L 15.5625 -19.34375 L 27.828125 -19.34375 Z M 25.5 -4.171875 "/></g></g></g><g fill="#d11f26" fill-opacity="1"><g transform="translate(651.022328, 298.561455)"><g><path d="M 16.75 -20.453125 L 14.515625 -20.703125 C 12.648438 -20.742188 11.144531 -19.863281 10 -18.0625 L 6.84375 0 L -0.15625 0 L 4.59375 -27.328125 L 11.140625 -27.34375 L 10.578125 -24.34375 C 11.398438 -25.65625 12.207031 -26.578125 13 -27.109375 C 13.789062 -27.640625 14.644531 -27.90625 15.5625 -27.90625 C 16.09375 -27.90625 16.804688 -27.78125 17.703125 -27.53125 Z M 16.75 -20.453125 "/></g></g></g><g fill="#d11f26" fill-opacity="1"><g transform="translate(667.911655, 298.561455)"><g><path d="M 14.265625 -27.828125 C 17.023438 -27.765625 19.179688 -26.832031 20.734375 -25.03125 C 22.285156 -23.226562 23.132812 -20.8125 23.28125 -17.78125 L 23.28125 -15.984375 C 23.0625 -10.703125 21.796875 -6.609375 19.484375 -3.703125 C 17.171875 -0.796875 14.148438 0.601562 10.421875 0.5 C 8.253906 0.445312 6.460938 -0.132812 5.046875 -1.25 C 3.628906 -2.363281 2.613281 -3.914062 2 -5.90625 C 1.382812 -7.894531 1.210938 -10.175781 1.484375 -12.75 L 1.640625 -14.109375 C 2.128906 -18.410156 3.5 -21.789062 5.75 -24.25 C 8.007812 -26.71875 10.847656 -27.910156 14.265625 -27.828125 Z M 8.359375 -9.90625 C 8.359375 -6.988281 9.25 -5.476562 11.03125 -5.375 C 13.457031 -5.238281 15.035156 -7.09375 15.765625 -10.9375 L 16.03125 -12.75 C 16.269531 -15.175781 16.390625 -16.734375 16.390625 -17.421875 C 16.390625 -20.316406 15.472656 -21.820312 13.640625 -21.9375 C 12.304688 -22.007812 11.207031 -21.394531 10.34375 -20.09375 C 9.488281 -18.800781 8.941406 -16.929688 8.703125 -14.484375 C 8.472656 -12.035156 8.359375 -10.507812 8.359375 -9.90625 Z M 8.359375 -9.90625 "/></g></g></g><g fill="#d11f26" fill-opacity="1"><g transform="translate(693.106828, 298.561455)"><g><path d="M 21.21875 -12.046875 L 26.234375 -27.328125 L 33.0625 -27.328125 L 22.828125 0 L 17.046875 0 L 16.0625 -15.703125 L 9.59375 0 L 3.765625 0 L 3 -27.328125 L 9.578125 -27.328125 L 9.25 -12.140625 L 15.375 -27.328125 L 20.359375 -27.328125 Z M 21.21875 -12.046875 "/></g></g></g></svg>