<?xml version="1.0" encoding="UTF-8"?>
<svg width="512" height="512" version="1.1" viewBox="0 0 1200 1200" xmlns="http://www.w3.org/2000/svg">
 <g fill="#192f69">
  <path d="m325.2 970.8v124.8h554.4l0.003906-124.8c0-75.602-58.801-134.4-134.4-134.4l-284.4-0.003906c-73.199 0-135.6 60-135.6 134.4z"/>
  <path d="m602.4 781.2c85.199 0 154.8-69.602 154.8-154.8 0-85.199-69.602-154.8-154.8-154.8-85.199 0-154.8 69.602-154.8 154.8 1.2031 85.203 69.602 154.8 154.8 154.8z"/>
  <path d="m241.2 804c67.199 0 121.2-55.199 121.2-121.2s-54-122.4-121.2-122.4c-67.199-0.003906-122.4 55.199-122.4 122.4s55.199 121.2 122.4 121.2z"/>
  <path d="m964.8 804c67.199 0 121.2-55.199 121.2-121.2s-55.199-121.2-121.2-121.2c-67.199 0-121.2 55.199-121.2 121.2s54 121.2 121.2 121.2z"/>
  <path d="m128.4 848.4c-57.602 0-105.6 46.801-105.6 105.6v141.6h260.4l-1.1953-123.6c0-50.398 22.801-94.801 57.602-123.6z"/>
  <path d="m1076.4 848.4h-208.8c34.797 30 56.398 74.402 56.398 123.6v123.6h259.2v-141.6c0-58.801-46.801-105.6-106.8-105.6z"/>
  <path d="m304.8 452.4-48 73.199 190.8-50.398c96-25.199 153.6-124.8 128.4-220.8-25.199-96-124.8-153.6-220.8-128.4-96 25.199-153.6 123.6-128.4 219.6 12 45.598 40.801 82.797 78 106.8zm182.4-182.4c14.398 0 26.398 12 26.398 26.398 0 14.398-12 26.398-26.398 26.398-14.398 0-26.398-12-26.398-26.398 0-14.398 10.801-26.398 26.398-26.398zm-84 0c14.398 0 26.398 12 26.398 26.398 0 14.398-12 26.398-26.398 26.398-14.398 0-26.398-12-26.398-26.398 0-14.398 12-26.398 26.398-26.398zm-85.199 0c14.398 0 26.398 12 26.398 26.398 0 14.398-12 26.398-26.398 26.398s-26.398-12-26.398-26.398c0-14.398 12-26.398 26.398-26.398z"/>
  <path d="m950.4 392.4c19.199-72-24-146.4-96-164.4-72-19.199-146.4 24-164.4 96s24 146.4 96 164.4l142.8 37.199-36-54c27.598-17.996 48-45.598 57.598-79.199zm-174-37.199c0 10.801-8.3984 19.199-19.199 19.199s-19.199-8.3984-19.199-19.199 8.3984-19.199 19.199-19.199c9.6016 0 19.199 8.3984 19.199 19.199zm61.203 0c0 10.801-8.3984 19.199-19.199 19.199-10.801 0-19.199-8.3984-19.199-19.199s8.3984-19.199 19.199-19.199c10.797 0 19.199 8.3984 19.199 19.199zm63.598 0c0 10.801-8.3984 19.199-19.199 19.199s-19.199-8.3984-19.199-19.199 8.3984-19.199 19.199-19.199 19.199 8.3984 19.199 19.199z"/>
 </g>
</svg>
