<?xml version="1.0" encoding="UTF-8"?>
<svg width="1200pt" height="1200pt" version="1.1" viewBox="0 0 1200 1200" xmlns="http://www.w3.org/2000/svg">
 <g fill="#d01f26">
  <path d="m600 0c-78.793 0-156.82 15.52-229.61 45.672s-138.94 74.348-194.65 130.07c-55.719 55.715-99.914 121.86-130.07 194.65s-45.672 150.82-45.672 229.61c0 159.13 63.215 311.74 175.74 424.26 112.52 112.52 265.13 175.73 424.27 175.73 159.13 0 311.74-63.215 424.26-175.74 112.52-112.52 175.74-265.13 175.74-424.26 0-159.13-63.215-311.74-175.73-424.27-112.52-112.52-265.13-175.74-424.26-175.74zm0 67.762c69.121 0 137.56 13.766 201.42 40.516 63.859 26.746 121.88 65.953 170.76 115.38s87.645 108.1 114.09 172.67c26.453 64.574 40.066 133.79 40.066 203.68 0 141.16-55.457 276.53-154.16 376.34-98.707 99.816-232.58 155.89-372.18 155.89-69.121 0-137.57-13.766-201.43-40.516-63.855-26.746-121.88-65.949-170.76-115.37-48.875-49.422-87.645-108.1-114.1-172.67-26.449-64.574-40.066-133.79-40.066-203.68 0-69.898 13.613-139.11 40.066-203.68 26.449-64.574 65.219-123.25 114.1-172.68 48.875-49.422 106.9-88.625 170.76-115.38 63.859-26.746 132.3-40.512 201.43-40.512z"/>
  <path d="m535.78 527.63c0 19.285-15.633 34.914-34.914 34.914s-34.914-15.629-34.914-34.914c0-19.281 15.633-34.914 34.914-34.914s34.914 15.633 34.914 34.914"/>
  <path d="m628.9 259.93c-100.15 0-200.85 61.426-249.42 150.38-4.9727 3.1953-10.551 6.9688-16.703 11.305-57.961 48.238-94.305 116.2-94.305 191.73 0 84.738 45.621 159.95 116.39 208.44v95.848c0 19.957 12.039 28.754 30.395 17.457l100.09-61.621c18.086 2.9531 36.691 4.6719 55.758 4.6797 76.137 0 128.71-24.758 176.78-65.391l45.48 26.336c24.914 14.426 45.062 9.0547 45.062-22.113v-83.809c60.828-51.797 93.117-123.71 93.117-208.43-0.003906-146.25-135.29-264.8-302.64-264.8zm-57.805 577.47c-20.789 0-40.875-2.3789-60.23-6.4023l-79.449 52.953 0.003907-82.492c-70.02-39.457-116.39-107.6-116.38-185.21 0-40.863 12.992-79.039 35.43-111.85-0.59766 6.7109-0.90625 13.496-0.90625 20.336 0 146.24 112.2 270.61 279.34 270.61 19.066 0 60.199-3.1953 78.293-6.1602-43.773 30.102-75.801 48.215-136.1 48.215zm220.76-124.57v82.52l-79.449-52.961c-19.34 4.0273-62.715 6.4023-83.5 6.4023-141.42 0-232.79-99.008-232.79-221.15 0-122.12 117.02-221.16 232.79-221.14 145.42 0 256.07 99.02 256.07 221.14 0 77.617-36.34 139.13-93.117 185.2z"/>
  <path d="m815.13 527.63c0 19.285-15.633 34.914-34.914 34.914-19.285 0-34.914-15.629-34.914-34.914 0-19.281 15.629-34.914 34.914-34.914 19.281 0 34.914 15.633 34.914 34.914"/>
  <path d="m675.47 527.63c0 19.289-15.637 34.922-34.922 34.922-19.289 0-34.922-15.633-34.922-34.922 0-19.285 15.633-34.918 34.922-34.918 19.285 0 34.922 15.633 34.922 34.918"/>
 </g>
</svg>
