<?xml version="1.0" encoding="UTF-8"?>
<svg width="1200pt" height="1200pt" version="1.1" viewBox="0 0 1200 1200" xmlns="http://www.w3.org/2000/svg">
 <g fill="#d01f26">
  <path d="m946.53 183.67h-40.41v-18.367c-0.94922-7.5859-4.3203-14.66-9.6172-20.176-5.293-5.5156-12.227-9.1758-19.77-10.434h-56.328v-64.898c0-8.75-4.6641-16.836-12.242-21.211-7.5781-4.375-16.914-4.375-24.492 0-7.5742 4.375-12.242 12.461-12.242 21.211v64.898h-56.328c-7.5391 1.2578-14.473 4.918-19.77 10.434-5.293 5.5156-8.668 12.59-9.6172 20.176v18.367h-171.43v-18.367c-0.94922-7.5859-4.3242-14.66-9.6172-20.176-5.2969-5.5156-12.23-9.1758-19.77-10.434h-56.328v-64.898c0-8.75-4.668-16.836-12.242-21.211-7.5781-4.375-16.914-4.375-24.492 0-7.5781 4.375-12.242 12.461-12.242 21.211v64.898h-56.328c-7.543 1.2578-14.477 4.918-19.77 10.434-5.2969 5.5156-8.668 12.59-9.6172 20.176v18.367h-40.41c-5.8594-0.41406-11.594 1.8203-15.629 6.0938-4.0312 4.2695-5.9375 10.121-5.1875 15.949v924.49c-0.83203 5.7383 1.0898 11.531 5.1914 15.629 4.0977 4.0977 9.8906 6.0195 15.625 5.1875h693.06c5.7344 0.83203 11.527-1.0898 15.625-5.1875 4.1016-4.0977 6.0234-9.8906 5.1914-15.629v-924.49c0.75-5.8281-1.1562-11.68-5.1875-15.949-4.0352-4.2734-9.7695-6.5078-15.629-6.0938zm-211.84 0h122.45v36.734h-122.45zm-391.84 0h122.45v36.734h-122.45zm575.51 918.37h-636.73v-869.39h12.246v8.5703c1.0547 7.3008 4.5195 14.039 9.8438 19.141 5.3242 5.1055 12.203 8.2812 19.543 9.0234h161.63c7.3359-0.74219 14.215-3.918 19.543-9.0234 5.3242-5.1016 8.7891-11.84 9.8438-19.141v-8.5703h171.43v8.5703c1.0547 7.3008 4.5195 14.039 9.8438 19.141 5.3281 5.1055 12.207 8.2812 19.543 9.0234h161.63c7.3398-0.74219 14.219-3.918 19.543-9.0234 5.3242-5.1016 8.7891-11.84 9.8438-19.141v-8.5703h12.246z"/>
  <path d="m873.06 775.1h-546.12c-6.4922 0-12.723-2.5781-17.316-7.1719s-7.1719-10.824-7.1719-17.316v-434.7c0-6.4961 2.5781-12.723 7.1719-17.316s10.824-7.1719 17.316-7.1719h546.12c6.4922 0 12.723 2.5781 17.316 7.1719s7.1719 10.82 7.1719 17.316v434.7c0 6.4922-2.5781 12.723-7.1719 17.316s-10.824 7.1719-17.316 7.1719zm-521.63-48.98h497.14v-385.71h-497.14z"/>
  <path d="m505.71 860.82h-178.78c-8.75 0-16.832-4.668-21.207-12.246-4.375-7.5742-4.375-16.91 0-24.488s12.457-12.246 21.207-12.246h178.78c8.75 0 16.832 4.668 21.207 12.246s4.375 16.914 0 24.488c-4.375 7.5781-12.457 12.246-21.207 12.246z"/>
  <path d="m873.06 958.78h-546.12c-8.75 0-16.832-4.668-21.207-12.246s-4.375-16.914 0-24.492c4.375-7.5742 12.457-12.242 21.207-12.242h546.12c8.75 0 16.832 4.668 21.207 12.242 4.375 7.5781 4.375 16.914 0 24.492s-12.457 12.246-21.207 12.246z"/>
  <path d="m873.06 1056.7h-546.12c-8.75 0-16.832-4.668-21.207-12.246-4.375-7.5742-4.375-16.91 0-24.488s12.457-12.246 21.207-12.246h546.12c8.75 0 16.832 4.668 21.207 12.246s4.375 16.914 0 24.488c-4.375 7.5781-12.457 12.246-21.207 12.246z"/>
 </g>
</svg>
