<?xml version="1.0" encoding="UTF-8"?>
<svg width="1200pt" height="1200pt" version="1.1" viewBox="0 0 1200 1200" xmlns="http://www.w3.org/2000/svg">
 <g fill="#d01f26">
  <path d="m600 0c-78.793 0-156.82 15.52-229.61 45.672s-138.94 74.348-194.65 130.07c-55.719 55.715-99.914 121.86-130.07 194.65s-45.672 150.82-45.672 229.61c0 159.13 63.215 311.74 175.74 424.26 112.52 112.52 265.13 175.73 424.27 175.73 159.13 0 311.74-63.215 424.26-175.74 112.52-112.52 175.74-265.13 175.74-424.26 0-159.13-63.215-311.74-175.73-424.27-112.52-112.52-265.13-175.74-424.26-175.74zm0 67.762c69.121 0 137.56 13.766 201.42 40.516 63.859 26.746 121.88 65.953 170.76 115.38s87.645 108.1 114.09 172.67c26.453 64.574 40.066 133.79 40.066 203.68 0 141.16-55.457 276.53-154.16 376.34-98.707 99.816-232.58 155.89-372.18 155.89-69.121 0-137.57-13.766-201.43-40.516-63.855-26.746-121.88-65.949-170.76-115.37-48.875-49.422-87.645-108.1-114.1-172.67-26.449-64.574-40.066-133.79-40.066-203.68 0-69.898 13.613-139.11 40.066-203.68 26.449-64.574 65.219-123.25 114.1-172.68 48.875-49.422 106.9-88.625 170.76-115.38 63.859-26.746 132.3-40.512 201.43-40.512z"/>
  <path d="m812.55 824.36h-425.09c-6.5195 0-11.809-5.2891-11.809-11.809v-425.09c0-6.5195 5.2891-11.809 11.809-11.809h425.09c3.1328 0 6.1328 1.2461 8.3477 3.4609 2.2148 2.2109 3.4609 5.2148 3.4609 8.3477v425.09c0 3.1328-1.2461 6.1328-3.4609 8.3477-2.2148 2.2148-5.2148 3.4609-8.3477 3.4609zm-413.28-23.617h401.47v-401.47h-401.47z"/>
  <path d="m600 871.59c-6.5195 0-11.805-5.2852-11.805-11.809v-47.23c0-6.5234 5.2852-11.809 11.805-11.809 6.5234 0 11.809 5.2852 11.809 11.809v47.23c0 3.1328-1.2422 6.1367-3.457 8.3516-2.2148 2.2148-5.2188 3.457-8.3516 3.457z"/>
  <path d="m505.54 942.43c-3.7188 0-7.2188-1.75-9.4492-4.7227-3.9102-5.2148-2.8555-12.617 2.3633-16.531l94.465-70.848c5.2148-3.9141 12.617-2.8555 16.531 2.3633 3.9102 5.2148 2.8555 12.617-2.3633 16.531l-94.465 70.848c-2.043 1.5312-4.5273 2.3594-7.082 2.3594z"/>
  <path d="m694.46 942.43c-2.5547 0-5.0391-0.82812-7.082-2.3594l-94.465-70.848c-5.2188-3.9141-6.2773-11.316-2.3633-16.531 3.9141-5.2188 11.316-6.2773 16.531-2.3633l94.465 70.848c5.2188 3.9141 6.2734 11.316 2.3633 16.531-2.2305 2.9727-5.7305 4.7227-9.4492 4.7227z"/>
  <path d="m824.36 399.27h-448.71c-16.875 0-32.465-9.0039-40.902-23.617-8.4375-14.613-8.4375-32.617 0-47.23s24.027-23.617 40.902-23.617h448.71c16.875 0 32.465 9.0039 40.902 23.617s8.4375 32.617 0 47.23c-8.4375 14.613-24.027 23.617-40.902 23.617zm-448.71-70.848c-8.4375 0-16.234 4.5-20.453 11.809-4.2188 7.3047-4.2188 16.309 0 23.613 4.2188 7.3086 12.016 11.809 20.453 11.809h448.71c8.4375 0 16.23-4.5 20.449-11.809 4.2188-7.3047 4.2188-16.309 0-23.613-4.2188-7.3086-12.012-11.809-20.449-11.809z"/>
 </g>
</svg>
